<svg width="34" height="34" viewBox="0 0 34 34" fill="none" xmlns="http://www.w3.org/2000/svg">
<g clip-path="url(#clip0_1098_482)">
<path d="M31.5302 15.2815C31.9139 15.7066 32.1263 16.2589 32.1263 16.8316C32.1263 17.4042 31.9139 17.9565 31.5302 18.3817C29.101 20.996 23.5717 26.0857 17.1169 26.0857C10.6622 26.0857 5.13281 20.996 2.7036 18.3817C2.31992 17.9565 2.10754 17.4042 2.10754 16.8316C2.10754 16.2589 2.31992 15.7066 2.7036 15.2815C5.13281 12.6672 10.6622 7.57745 17.1169 7.57745C23.5717 7.57745 29.101 12.6672 31.5302 15.2815Z" stroke="#023047" stroke-width="2.31353" stroke-linecap="round" stroke-linejoin="round"/>
<path d="M17.1168 21.4587C19.6723 21.4587 21.7439 19.3871 21.7439 16.8316C21.7439 14.2761 19.6723 12.2045 17.1168 12.2045C14.5614 12.2045 12.4898 14.2761 12.4898 16.8316C12.4898 19.3871 14.5614 21.4587 17.1168 21.4587Z" stroke="#023047" stroke-width="2.31353" stroke-linecap="round" stroke-linejoin="round"/>
</g>
<defs>
<clipPath id="clip0_1098_482">
<rect width="32.3895" height="32.3895" fill="white" transform="translate(0.922119 0.636841)"/>
</clipPath>
</defs>
</svg>
