<svg width="20" height="20" viewBox="0 0 20 20" fill="none" xmlns="http://www.w3.org/2000/svg">
<path d="M5.34156 12.5H14.6582C14.823 12.4993 14.9839 12.4498 15.1206 12.3576C15.2572 12.2655 15.3635 12.1349 15.426 11.9824C15.4884 11.8299 15.5042 11.6622 15.4714 11.5007C15.4386 11.3392 15.3586 11.1911 15.2416 11.075L10.5916 6.42501C10.5141 6.3469 10.4219 6.28491 10.3204 6.2426C10.2188 6.20029 10.1099 6.17851 9.99989 6.17851C9.88988 6.17851 9.78096 6.20029 9.67941 6.2426C9.57786 6.28491 9.48569 6.3469 9.40823 6.42501L4.75823 11.075C4.64121 11.1911 4.56123 11.3392 4.52841 11.5007C4.49559 11.6622 4.5114 11.8299 4.57383 11.9824C4.63627 12.1349 4.74254 12.2655 4.87919 12.3576C5.01584 12.4498 5.17675 12.4993 5.34156 12.5Z" fill="#374957" fill-opacity="0.5"/>
</svg>
