<svg width="20" height="20" viewBox="0 0 20 20" fill="none" xmlns="http://www.w3.org/2000/svg">
<g id="fi-rr-eye-crossed" clip-path="url(#clip0_4_1949)">
<path id="Vector" d="M19.3923 7.84901C18.64 6.61711 17.6911 5.51672 16.5831 4.59151L18.9165 2.25818C19.0683 2.10101 19.1523 1.89051 19.1504 1.67201C19.1485 1.45351 19.0608 1.2445 18.9063 1.08999C18.7518 0.935488 18.5428 0.847847 18.3243 0.845948C18.1058 0.84405 17.8953 0.928045 17.7381 1.07984L15.2006 3.62068C13.6276 2.68636 11.8293 2.1994 9.9998 2.21234C4.84063 2.21234 1.90063 5.74401 0.607299 7.84901C0.207739 8.49526 -0.00390625 9.24004 -0.00390625 9.99984C-0.00390625 10.7596 0.207739 11.5044 0.607299 12.1507C1.3596 13.3826 2.30854 14.483 3.41646 15.4082L1.08313 17.7415C1.00354 17.8184 0.940055 17.9103 0.896381 18.012C0.852707 18.1137 0.829718 18.223 0.828757 18.3337C0.827795 18.4443 0.84888 18.5541 0.890781 18.6565C0.932681 18.7589 0.994559 18.8519 1.0728 18.9302C1.15105 19.0084 1.24409 19.0703 1.3465 19.1122C1.44892 19.1541 1.55865 19.1752 1.6693 19.1742C1.77995 19.1733 1.8893 19.1503 1.99097 19.1066C2.09264 19.0629 2.18459 18.9994 2.26147 18.9198L4.8048 16.3765C6.37585 17.3107 8.17202 17.7985 9.9998 17.7873C15.159 17.7873 18.099 14.2557 19.3923 12.1507C19.7919 11.5044 20.0035 10.7596 20.0035 9.99984C20.0035 9.24004 19.7919 8.49526 19.3923 7.84901ZM2.0273 11.2782C1.78991 10.894 1.66417 10.4514 1.66417 9.99984C1.66417 9.54828 1.78991 9.10564 2.0273 8.72151C3.13897 6.91651 5.65147 3.87901 9.9998 3.87901C11.3834 3.87126 12.7475 4.20471 13.9715 4.84984L12.294 6.52734C11.4939 5.99618 10.5347 5.75817 9.57916 5.85371C8.6236 5.94926 7.73052 6.37246 7.05147 7.05151C6.37241 7.73056 5.94921 8.62364 5.85367 9.5792C5.75813 10.5348 5.99613 11.494 6.5273 12.294L4.6023 14.219C3.58155 13.3938 2.7105 12.399 2.0273 11.2782ZM12.4998 9.99984C12.4998 10.6629 12.2364 11.2988 11.7676 11.7676C11.2987 12.2365 10.6628 12.4998 9.9998 12.4998C9.62856 12.4984 9.26246 12.4129 8.92897 12.2498L12.2498 8.92901C12.4129 9.26251 12.4984 9.6286 12.4998 9.99984ZM7.4998 9.99984C7.4998 9.3368 7.76319 8.70092 8.23203 8.23208C8.70087 7.76323 9.33676 7.49984 9.9998 7.49984C10.371 7.50128 10.7371 7.58675 11.0706 7.74984L7.7498 11.0707C7.58671 10.7372 7.50124 10.3711 7.4998 9.99984ZM17.9723 11.2782C16.8606 13.0832 14.3481 16.1207 9.9998 16.1207C8.61624 16.1284 7.2521 15.795 6.02813 15.1498L7.70563 13.4723C8.50569 14.0035 9.46488 14.2415 10.4204 14.146C11.376 14.0504 12.2691 13.6272 12.9481 12.9482C13.6272 12.2691 14.0504 11.376 14.1459 10.4205C14.2415 9.46492 14.0035 8.50573 13.4723 7.70568L15.3973 5.78068C16.418 6.60591 17.2891 7.60072 17.9723 8.72151C18.2097 9.10564 18.3354 9.54828 18.3354 9.99984C18.3354 10.4514 18.2097 10.894 17.9723 11.2782Z" fill="#2C5163" fill-opacity="0.85"/>
</g>
<defs>
<clipPath id="clip0_4_1949">
<rect width="20" height="20" fill="white"/>
</clipPath>
</defs>
</svg>
