<svg width="20" height="20" viewBox="0 0 20 20" fill="none" xmlns="http://www.w3.org/2000/svg">
<g clip-path="url(#clip0_221_844)">
<path d="M19.0442 0.956674C18.4776 0.391005 17.7098 0.073288 16.9092 0.073288C16.1086 0.073288 15.3407 0.391005 14.7742 0.956674L1.22085 14.51C0.832722 14.8959 0.524981 15.355 0.315428 15.8607C0.105874 16.3663 -0.00133165 16.9085 1.24844e-05 17.4558V19.1667C1.24844e-05 19.3877 0.0878099 19.5996 0.24409 19.7559C0.40037 19.9122 0.612332 20 0.833346 20H2.54418C3.09148 20.0016 3.63365 19.8945 4.13931 19.6851C4.64496 19.4757 5.10406 19.1681 5.49001 18.78L19.0442 5.22584C19.6096 4.65934 19.9271 3.89165 19.9271 3.09126C19.9271 2.29087 19.6096 1.52318 19.0442 0.956674ZM4.31168 17.6017C3.84168 18.0685 3.20665 18.3314 2.54418 18.3333H1.66668V17.4558C1.66584 17.1274 1.73014 16.8021 1.85588 16.4987C1.98161 16.1953 2.16628 15.9199 2.39918 15.6883L12.685 5.40251L14.6017 7.31917L4.31168 17.6017ZM17.865 4.04751L15.7767 6.13667L13.86 4.22417L15.9492 2.13501C16.075 2.00943 16.2244 1.90987 16.3887 1.84201C16.553 1.77416 16.7291 1.73933 16.9069 1.73953C17.0847 1.73972 17.2607 1.77493 17.4249 1.84314C17.5891 1.91136 17.7382 2.01124 17.8638 2.13709C17.9893 2.26294 18.0889 2.41229 18.1568 2.57662C18.2246 2.74095 18.2594 2.91703 18.2592 3.09481C18.2591 3.2726 18.2238 3.44861 18.1556 3.61278C18.0874 3.77696 17.9875 3.9261 17.8617 4.05167L17.865 4.04751Z" fill="#023047" fill-opacity="0.5"/>
</g>
<defs>
<clipPath id="clip0_221_844">
<rect width="20" height="20" fill="white"/>
</clipPath>
</defs>
</svg>
