<svg width="20" height="20" viewBox="0 0 20 20" fill="none" xmlns="http://www.w3.org/2000/svg">
<g clip-path="url(#clip0_221_874)">
<path d="M0.833156 20.0004C1.05415 20.0003 1.26608 19.9125 1.42232 19.7562L6.93816 14.2404L7.97816 15.317C8.76201 16.1454 9.84237 16.6291 10.9823 16.662C11.3623 16.6632 11.7397 16.5992 12.0982 16.4729C12.6519 16.2822 13.1385 15.9349 13.4987 15.473C13.8589 15.0112 14.0773 14.4547 14.1273 13.8712C14.2177 13.0261 14.1551 12.1716 13.9423 11.3487L13.764 10.4804C13.7302 10.3415 13.7327 10.1963 13.7712 10.0587C13.8097 9.92106 13.883 9.79566 13.984 9.69453L15.3065 8.3712C15.3587 8.31883 15.4292 8.28892 15.5032 8.28786C15.5291 8.28304 15.5559 8.28555 15.5805 8.29512C15.605 8.30469 15.6265 8.32094 15.6423 8.34203C16.0609 8.78591 16.624 9.066 17.2305 9.13198C17.8371 9.19796 18.4473 9.04552 18.9515 8.70203C19.2474 8.4911 19.4937 8.21822 19.6734 7.90237C19.853 7.58652 19.9616 7.23531 19.9917 6.8732C20.0218 6.51108 19.9725 6.14676 19.8474 5.80562C19.7223 5.46447 19.5244 5.15469 19.2673 4.89786L15.1665 0.795363C14.7454 0.36378 14.186 0.0939334 13.5862 0.0330012C12.9863 -0.027931 12.3841 0.123929 11.8848 0.46203C11.5889 0.67289 11.3425 0.945728 11.1628 1.26154C10.983 1.57735 10.8743 1.92855 10.8442 2.29067C10.814 2.65279 10.8632 3.01712 10.9882 3.3583C11.1133 3.69949 11.3112 4.00931 11.5682 4.2662L11.6315 4.32953C11.6792 4.37761 11.706 4.44261 11.706 4.51036C11.706 4.57811 11.6792 4.64312 11.6315 4.6912L10.2982 6.02453C10.1959 6.1266 10.0688 6.20032 9.92943 6.23845C9.79005 6.27658 9.64315 6.27781 9.50316 6.24203L8.82232 6.06786C7.98487 5.84915 7.11481 5.78337 6.25399 5.8737C5.64346 5.93693 5.06372 6.17339 4.58313 6.5552C4.10254 6.93702 3.74113 7.44827 3.54149 8.0287C3.32363 8.62516 3.28067 9.27144 3.41767 9.89149C3.55467 10.5115 3.86593 11.0796 4.31482 11.5287L5.77982 13.0454L0.243989 18.5779C0.127481 18.6944 0.0481425 18.8429 0.0160029 19.0045C-0.0161367 19.1661 0.000365755 19.3337 0.0634241 19.4859C0.126482 19.6382 0.233265 19.7683 0.370274 19.8599C0.507282 19.9514 0.668364 20.0003 0.833156 20.0004ZM5.11232 8.5837C5.20623 8.29979 5.38042 8.0492 5.6138 7.86225C5.84719 7.67531 6.12977 7.56003 6.42732 7.53036C6.61917 7.51039 6.81193 7.50038 7.00482 7.50036C7.47759 7.50039 7.94839 7.56116 8.40566 7.6812L9.09149 7.8562C9.51167 7.9625 9.95223 7.95812 10.3702 7.84348C10.7882 7.72883 11.1693 7.50783 11.4765 7.20203L12.8098 5.8687C13.1696 5.50785 13.3716 5.01909 13.3716 4.50953C13.3716 3.99997 13.1696 3.51121 12.8098 3.15036L12.7465 3.08703C12.6602 3.00095 12.5939 2.89699 12.5521 2.78248C12.5104 2.66797 12.4943 2.5457 12.5049 2.42428C12.5156 2.30287 12.5527 2.18526 12.6137 2.07977C12.6748 1.97427 12.7582 1.88345 12.8582 1.8137C13.036 1.70605 13.2455 1.66302 13.4513 1.69186C13.6572 1.72071 13.8468 1.81966 13.9882 1.97203L18.0915 6.07536C18.1778 6.16144 18.2441 6.2654 18.2859 6.37991C18.3276 6.49443 18.3437 6.6167 18.3331 6.73811C18.3224 6.85953 18.2853 6.97713 18.2242 7.08262C18.1632 7.18812 18.0798 7.27895 17.9798 7.3487C17.8001 7.45781 17.5879 7.50087 17.3798 7.47045C17.1718 7.44003 16.9808 7.33804 16.8398 7.18203C16.6684 7.00524 16.4632 6.8646 16.2365 6.76842C16.0098 6.67224 15.7661 6.62246 15.5198 6.62203C15.0003 6.62439 14.5021 6.82882 14.1307 7.19203L12.809 8.51453C12.5089 8.81485 12.2902 9.18665 12.1736 9.59488C12.0569 10.0031 12.0462 10.4343 12.1423 10.8479L12.3248 11.7295C12.493 12.3724 12.5441 13.0402 12.4757 13.7012C12.4557 13.9708 12.357 14.2285 12.1919 14.4425C12.0267 14.6564 11.8022 14.8171 11.5465 14.9045C11.1202 15.0166 10.6709 15.0056 10.2506 14.8729C9.83023 14.7402 9.4561 14.4911 9.17149 14.1545L5.50482 10.3629C5.27619 10.1348 5.1177 9.84606 5.04813 9.53074C4.97857 9.21541 5.00085 8.88675 5.11232 8.5837Z" fill="#023047" fill-opacity="0.5"/>
</g>
<defs>
<clipPath id="clip0_221_874">
<rect width="20" height="20" fill="white"/>
</clipPath>
</defs>
</svg>
