<svg width="24" height="24" viewBox="0 0 24 24" fill="none" xmlns="http://www.w3.org/2000/svg">
<g clip-path="url(#clip0_154_409)">
<path d="M9 11.9999C7.81331 11.9999 6.65328 11.648 5.66658 10.9888C4.67989 10.3295 3.91085 9.3924 3.45673 8.29604C3.0026 7.19969 2.88378 5.99329 3.11529 4.8294C3.3468 3.66551 3.91825 2.59642 4.75736 1.7573C5.59648 0.918186 6.66558 0.346741 7.82946 0.11523C8.99335 -0.116281 10.1997 0.00253868 11.2961 0.456664C12.3925 0.91079 13.3295 1.67983 13.9888 2.66652C14.6481 3.65321 15 4.81325 15 5.99994C14.9984 7.59075 14.3658 9.11595 13.2409 10.2408C12.116 11.3657 10.5908 11.9984 9 11.9999ZM9 1.99994C8.20888 1.99994 7.43552 2.23454 6.77772 2.67406C6.11993 3.11359 5.60724 3.7383 5.30448 4.46921C5.00173 5.20011 4.92252 6.00438 5.07686 6.7803C5.2312 7.55623 5.61217 8.26896 6.17158 8.82837C6.73099 9.38778 7.44372 9.76874 8.21964 9.92308C8.99557 10.0774 9.79983 9.99821 10.5307 9.69546C11.2616 9.39271 11.8864 8.88002 12.3259 8.22222C12.7654 7.56443 13 6.79107 13 5.99994C13 4.93908 12.5786 3.92166 11.8284 3.17151C11.0783 2.42137 10.0609 1.99994 9 1.99994Z" fill="#023047"/>
<path d="M18 23.9997H16V18.9567C15.9989 18.1728 15.6871 17.4213 15.1327 16.8669C14.5784 16.3126 13.8269 16.0007 13.043 15.9997H4.957C4.17308 16.0007 3.42157 16.3126 2.86725 16.8669C2.31294 17.4213 2.00106 18.1728 2 18.9567V23.9997H0V18.9567C0.00158783 17.6425 0.524352 16.3826 1.45363 15.4533C2.3829 14.524 3.64281 14.0013 4.957 13.9997H13.043C14.3572 14.0013 15.6171 14.524 16.5464 15.4533C17.4756 16.3826 17.9984 17.6425 18 18.9567V23.9997Z" fill="#023047"/>
<path d="M22.0002 7.875C21.4437 7.90272 20.9208 8.14977 20.546 8.56207C20.1712 8.97437 19.9749 9.51836 20.0002 10.075C20.0255 9.51836 19.8293 8.97437 19.4544 8.56207C19.0796 8.14977 18.5567 7.90272 18.0002 7.875C17.4437 7.90272 16.9208 8.14977 16.546 8.56207C16.1712 8.97437 15.9749 9.51836 16.0002 10.075C16.0002 12.375 20.0002 15.208 20.0002 15.208C20.0002 15.208 24.0002 12.379 24.0002 10.075C24.0255 9.51836 23.8292 8.97437 23.4544 8.56207C23.0796 8.14977 22.5567 7.90272 22.0002 7.875Z" fill="#023047"/>
</g>
<defs>
<clipPath id="clip0_154_409">
<rect width="24" height="24" fill="white"/>
</clipPath>
</defs>
</svg>
