<svg width="151" height="34" viewBox="0 0 151 34" fill="none" xmlns="http://www.w3.org/2000/svg">
<path d="M15.2 10.72C17.8933 10.72 20.0533 11.5333 21.68 13.16C23.3333 14.7867 24.16 17.24 24.16 20.52V33H15.12V22.08C15.12 19.5733 14.2267 18.32 12.44 18.32C11.4267 18.32 10.6 18.68 9.96 19.4C9.34667 20.0933 9.04 21.2 9.04 22.72V33H2.98023e-08V11.12H8.6V13.28C9.45333 12.4267 10.44 11.7867 11.56 11.36C12.68 10.9333 13.8933 10.72 15.2 10.72ZM52.4766 11.12V33H43.8766V31.2C42.5699 32.6667 40.5699 33.4 37.8766 33.4C35.9566 33.4 34.1832 32.9467 32.5566 32.04C30.9566 31.1067 29.6766 29.7733 28.7166 28.04C27.7832 26.3067 27.3166 24.3067 27.3166 22.04C27.3166 19.7733 27.7832 17.7867 28.7166 16.08C29.6766 14.3467 30.9566 13.0267 32.5566 12.12C34.1832 11.1867 35.9566 10.72 37.8766 10.72C40.3032 10.72 42.1566 11.3467 43.4366 12.6V11.12H52.4766ZM40.0366 26.36C41.0766 26.36 41.9299 25.9867 42.5966 25.24C43.2632 24.4667 43.5966 23.4 43.5966 22.04C43.5966 20.68 43.2632 19.6267 42.5966 18.88C41.9299 18.1333 41.0766 17.76 40.0366 17.76C38.9966 17.76 38.1432 18.1333 37.4766 18.88C36.8099 19.6267 36.4766 20.68 36.4766 22.04C36.4766 23.4 36.8099 24.4667 37.4766 25.24C38.1432 25.9867 38.9966 26.36 40.0366 26.36ZM80.8444 11.12L72.0444 33H62.6844L53.8844 11.12H63.1644L67.5644 22.84L72.2844 11.12H80.8444ZM82.2266 11.12H91.2666V33H82.2266V11.12ZM86.7466 9.36C85.1199 9.36 83.7999 8.93333 82.7866 8.08C81.7999 7.2 81.3066 6.09333 81.3066 4.76C81.3066 3.42667 81.7999 2.33333 82.7866 1.48C83.7999 0.599998 85.1199 0.159998 86.7466 0.159998C88.3999 0.159998 89.7199 0.573332 90.7066 1.4C91.6932 2.22666 92.1866 3.29333 92.1866 4.6C92.1866 5.98666 91.6932 7.13333 90.7066 8.04C89.7199 8.92 88.3999 9.36 86.7466 9.36ZM103.873 13.48C105.473 11.64 107.833 10.72 110.953 10.72V18.72C110.233 18.6133 109.567 18.56 108.953 18.56C105.86 18.56 104.313 20.1333 104.313 23.28V33H95.2734V11.12H103.873V13.48ZM113.516 11.12H122.556V33H113.516V11.12ZM118.036 9.36C116.409 9.36 115.089 8.93333 114.076 8.08C113.089 7.2 112.596 6.09333 112.596 4.76C112.596 3.42667 113.089 2.33333 114.076 1.48C115.089 0.599998 116.409 0.159998 118.036 0.159998C119.689 0.159998 121.009 0.573332 121.996 1.4C122.982 2.22666 123.476 3.29333 123.476 4.6C123.476 5.98666 122.982 7.13333 121.996 8.04C121.009 8.92 119.689 9.36 118.036 9.36ZM150.563 11.12V33H141.963V31.2C140.656 32.6667 138.656 33.4 135.963 33.4C134.043 33.4 132.269 32.9467 130.643 32.04C129.043 31.1067 127.763 29.7733 126.803 28.04C125.869 26.3067 125.403 24.3067 125.403 22.04C125.403 19.7733 125.869 17.7867 126.803 16.08C127.763 14.3467 129.043 13.0267 130.643 12.12C132.269 11.1867 134.043 10.72 135.963 10.72C138.389 10.72 140.243 11.3467 141.523 12.6V11.12H150.563ZM138.123 26.36C139.163 26.36 140.016 25.9867 140.683 25.24C141.349 24.4667 141.683 23.4 141.683 22.04C141.683 20.68 141.349 19.6267 140.683 18.88C140.016 18.1333 139.163 17.76 138.123 17.76C137.083 17.76 136.229 18.1333 135.563 18.88C134.896 19.6267 134.562 20.68 134.562 22.04C134.562 23.4 134.896 24.4667 135.563 25.24C136.229 25.9867 137.083 26.36 138.123 26.36Z" fill="white"/>
</svg>
