<svg width="18" height="20" viewBox="0 0 18 20" fill="none" xmlns="http://www.w3.org/2000/svg">
<path d="M7.1454 1.24975C7.2948 0.880497 7.55106 0.564275 7.88134 0.341615C8.21163 0.118954 8.60088 0 8.9992 0C9.39753 0 9.78678 0.118954 10.1171 0.341615C10.4473 0.564275 10.7036 0.880497 10.853 1.24975C12.3316 1.65639 13.6358 2.53717 14.5654 3.75682C15.4949 4.97647 15.9984 6.46754 15.9985 8.00104V12.6975L17.8303 15.4453C17.9307 15.5958 17.9884 15.7709 17.9972 15.9517C18.006 16.1325 17.9655 16.3123 17.8801 16.4719C17.7947 16.6315 17.6676 16.765 17.5123 16.858C17.357 16.951 17.1794 17.0001 16.9984 17.0001H12.4638C12.3434 17.8331 11.927 18.5949 11.2907 19.1458C10.6544 19.6968 9.84088 20 8.9992 20C8.15753 20 7.34404 19.6968 6.70774 19.1458C6.07145 18.5949 5.65496 17.8331 5.53457 17.0001H1.00004C0.819021 17.0001 0.641385 16.951 0.48609 16.858C0.330794 16.765 0.203664 16.6315 0.118263 16.4719C0.0328626 16.3123 -0.00760495 16.1325 0.00117773 15.9517C0.0099604 15.7709 0.0676639 15.5958 0.168132 15.4453L1.99994 12.6975V8.00104C1.99994 4.77737 4.17971 2.06166 7.1454 1.24975ZM7.58535 17.0001C7.68862 17.2927 7.88011 17.5461 8.13342 17.7253C8.38673 17.9046 8.6894 18.0008 8.9997 18.0008C9.31001 18.0008 9.61268 17.9046 9.86599 17.7253C10.1193 17.5461 10.3108 17.2927 10.4141 17.0001H7.58435H7.58535ZM8.9992 3.00156C7.67326 3.00156 6.40163 3.52829 5.46404 4.46587C4.52646 5.40346 3.99973 6.67509 3.99973 8.00104V13.0005C3.99977 13.198 3.94132 13.3911 3.83175 13.5555L2.86885 15.0003H15.1286L14.1657 13.5555C14.0564 13.391 13.9983 13.1979 13.9987 13.0005V8.00104C13.9987 6.67509 13.472 5.40346 12.5344 4.46587C11.5968 3.52829 10.3251 3.00156 8.9992 3.00156Z" fill="white"/>
<circle cx="14" cy="4" r="3" fill="white"/>
</svg>
